<?xml version="1.0" encoding="UTF-8"?><svg xmlns="http://www.w3.org/2000/svg" xmlns:xlink="http://www.w3.org/1999/xlink" fill-opacity="1" color-rendering="auto" color-interpolation="auto" text-rendering="auto" stroke="black" stroke-linecap="square" width="1296" stroke-miterlimit="10" shape-rendering="auto" stroke-opacity="1" fill="black" stroke-dasharray="none" font-weight="normal" stroke-width="1" height="812" font-family="'Dialog'" font-style="normal" stroke-linejoin="miter" font-size="12px" stroke-dashoffset="0" image-rendering="auto">
  <!--Generated by ySVG 2.5-->
  <defs id="genericDefs"/>
  <g>
    <defs id="defs1">
      <linearGradient x1="437.5168" gradientUnits="userSpaceOnUse" x2="623.3728" y1="397.5168" y2="457.3056" id="linearGradient1" spreadMethod="reflect">
        <stop stop-opacity="1" stop-color="rgb(232,238,247)" offset="0%"/>
        <stop stop-opacity="1" stop-color="rgb(183,201,227)" offset="100%"/>
      </linearGradient>
      <linearGradient x1="316.3636" gradientUnits="userSpaceOnUse" x2="396.3636" y1="556.12" y2="596.12" id="linearGradient2" spreadMethod="reflect">
        <stop stop-opacity="1" stop-color="rgb(232,238,247)" offset="0%"/>
        <stop stop-opacity="1" stop-color="rgb(183,201,227)" offset="100%"/>
      </linearGradient>
      <linearGradient x1="667.9648" gradientUnits="userSpaceOnUse" x2="882.9648" y1="528.8093" y2="611.0493" id="linearGradient3" spreadMethod="reflect">
        <stop stop-opacity="1" stop-color="rgb(232,238,247)" offset="0%"/>
        <stop stop-opacity="1" stop-color="rgb(153,204,255)" offset="100%"/>
      </linearGradient>
      <linearGradient x1="422.9448" gradientUnits="userSpaceOnUse" x2="637.9448" y1="255.7968" y2="338.0369" id="linearGradient4" spreadMethod="reflect">
        <stop stop-opacity="1" stop-color="rgb(232,238,247)" offset="0%"/>
        <stop stop-opacity="1" stop-color="rgb(153,204,255)" offset="100%"/>
      </linearGradient>
      <linearGradient x1="-75.1376" gradientUnits="userSpaceOnUse" x2="89.8624" y1="682.5529" y2="748.5529" id="linearGradient5" spreadMethod="reflect">
        <stop stop-opacity="1" stop-color="rgb(232,238,247)" offset="0%"/>
        <stop stop-opacity="1" stop-color="rgb(153,204,255)" offset="100%"/>
      </linearGradient>
      <linearGradient x1="-75.1376" gradientUnits="userSpaceOnUse" x2="89.8624" y1="543.12" y2="609.12" id="linearGradient6" spreadMethod="reflect">
        <stop stop-opacity="1" stop-color="rgb(232,238,247)" offset="0%"/>
        <stop stop-opacity="1" stop-color="rgb(153,204,255)" offset="100%"/>
      </linearGradient>
      <linearGradient x1="254.8624" gradientUnits="userSpaceOnUse" x2="457.8648" y1="682.5529" y2="748.5529" id="linearGradient7" spreadMethod="reflect">
        <stop stop-opacity="1" stop-color="white" offset="0%"/>
        <stop stop-opacity="1" stop-color="rgb(51,102,255)" offset="100%"/>
      </linearGradient>
      <linearGradient x1="-104.2376" gradientUnits="userSpaceOnUse" x2="118.9624" y1="814.3217" y2="886.3217" id="linearGradient8" spreadMethod="reflect">
        <stop stop-opacity="1" stop-color="white" offset="0%"/>
        <stop stop-opacity="1" stop-color="rgb(51,102,255)" offset="100%"/>
      </linearGradient>
      <linearGradient x1="533.7636" gradientUnits="userSpaceOnUse" x2="756.9636" y1="814.3217" y2="886.3217" id="linearGradient9" spreadMethod="reflect">
        <stop stop-opacity="1" stop-color="white" offset="0%"/>
        <stop stop-opacity="1" stop-color="rgb(153,51,102)" offset="100%"/>
      </linearGradient>
      <linearGradient x1="533.7636" gradientUnits="userSpaceOnUse" x2="756.9636" y1="964.5904" y2="1036.5905" id="linearGradient10" spreadMethod="reflect">
        <stop stop-opacity="1" stop-color="white" offset="0%"/>
        <stop stop-opacity="1" stop-color="rgb(153,51,102)" offset="100%"/>
      </linearGradient>
      <linearGradient x1="168.7624" gradientUnits="userSpaceOnUse" x2="391.9624" y1="964.5904" y2="1036.5905" id="linearGradient11" spreadMethod="reflect">
        <stop stop-opacity="1" stop-color="white" offset="0%"/>
        <stop stop-opacity="1" stop-color="rgb(153,51,102)" offset="100%"/>
      </linearGradient>
      <linearGradient x1="936.8648" gradientUnits="userSpaceOnUse" x2="1160.0648" y1="814.3217" y2="886.3217" id="linearGradient12" spreadMethod="reflect">
        <stop stop-opacity="1" stop-color="rgb(51,102,255)" offset="0%"/>
        <stop stop-opacity="1" stop-color="rgb(204,255,204)" offset="100%"/>
      </linearGradient>
      <clipPath clipPathUnits="userSpaceOnUse" id="clipPath1">
        <path d="M0 0 L1296 0 L1296 812 L0 812 L0 0 Z"/>
      </clipPath>
      <clipPath clipPathUnits="userSpaceOnUse" id="clipPath2">
        <path d="M-120 240 L1176 240 L1176 1052 L-120 1052 L-120 240 Z"/>
      </clipPath>
    </defs>
    <g fill="white" text-rendering="geometricPrecision" shape-rendering="geometricPrecision" transform="translate(120,-240)" stroke="white">
      <rect x="-120" width="1296" height="812" y="240" clip-path="url(#clipPath2)" stroke="none"/>
    </g>
    <g fill="url(#linearGradient1)" text-rendering="geometricPrecision" shape-rendering="geometricPrecision" transform="matrix(1,0,0,1,120,-240)" stroke="url(#linearGradient1)">
      <path d="M447.5168 397.5168 L613.3728 397.5168 L623.3728 407.5168 L623.3728 457.3056 L437.5168 457.3056 L437.5168 407.5168 Z" stroke="none" clip-path="url(#clipPath2)"/>
    </g>
    <g text-rendering="geometricPrecision" stroke-miterlimit="1.45" shape-rendering="geometricPrecision" transform="matrix(1,0,0,1,120,-240)" stroke-linecap="butt">
      <path fill="none" d="M447.5168 397.5168 L613.3728 397.5168 L623.3728 407.5168 L623.3728 457.3056 L437.5168 457.3056 L437.5168 407.5168 Z" clip-path="url(#clipPath2)"/>
      <text x="458.3628" xml:space="preserve" y="431.5655" clip-path="url(#clipPath2)" font-family="sans-serif" stroke="none">Boucle sur chaque ligne</text>
    </g>
    <g fill="url(#linearGradient2)" text-rendering="geometricPrecision" shape-rendering="geometricPrecision" transform="matrix(1,0,0,1,120,-240)" stroke="url(#linearGradient2)">
      <path d="M356.3636 556.12 L396.3636 576.12 L356.3636 596.12 L316.3636 576.12 Z" stroke="none" clip-path="url(#clipPath2)"/>
    </g>
    <g text-rendering="geometricPrecision" stroke-miterlimit="1.45" shape-rendering="geometricPrecision" transform="matrix(1,0,0,1,120,-240)" stroke-linecap="butt">
      <path fill="none" d="M356.3636 556.12 L396.3636 576.12 L356.3636 596.12 L316.3636 576.12 Z" clip-path="url(#clipPath2)"/>
    </g>
    <g fill="url(#linearGradient3)" text-rendering="geometricPrecision" shape-rendering="geometricPrecision" transform="matrix(1,0,0,1,120,-240)" stroke="url(#linearGradient3)">
      <path d="M667.9648 528.8093 L882.9648 528.8093 L882.9648 611.0493 L667.9648 611.0493 Z" stroke="none" clip-path="url(#clipPath2)"/>
    </g>
    <g text-rendering="geometricPrecision" stroke-miterlimit="1.45" shape-rendering="geometricPrecision" transform="matrix(1,0,0,1,120,-240)" stroke-linecap="butt">
      <path fill="none" d="M667.9648 528.8093 L882.9648 528.8093 L882.9648 611.0493 L667.9648 611.0493 Z" clip-path="url(#clipPath2)"/>
      <text x="740.288" xml:space="preserve" y="574.0836" clip-path="url(#clipPath2)" font-family="sans-serif" stroke="none">Ajout &lt;pb&gt;</text>
    </g>
    <g fill="url(#linearGradient4)" text-rendering="geometricPrecision" shape-rendering="geometricPrecision" transform="matrix(1,0,0,1,120,-240)" stroke="url(#linearGradient4)">
      <path d="M422.9448 255.7968 L637.9448 255.7968 L637.9448 338.0369 L422.9448 338.0369 Z" stroke="none" clip-path="url(#clipPath2)"/>
    </g>
    <g text-rendering="geometricPrecision" stroke-miterlimit="1.45" shape-rendering="geometricPrecision" transform="matrix(1,0,0,1,120,-240)" stroke-linecap="butt">
      <path fill="none" d="M422.9448 255.7968 L637.9448 255.7968 L637.9448 338.0369 L422.9448 338.0369 Z" clip-path="url(#clipPath2)"/>
      <text x="493.8589" xml:space="preserve" y="301.0711" clip-path="url(#clipPath2)" font-family="sans-serif" stroke="none">Ajout &lt;div&gt;</text>
    </g>
    <g fill="url(#linearGradient5)" text-rendering="geometricPrecision" shape-rendering="geometricPrecision" transform="matrix(1,0,0,1,120,-240)" stroke="url(#linearGradient5)">
      <path d="M-75.1376 682.5529 L89.8624 682.5529 L89.8624 748.5529 L-75.1376 748.5529 Z" stroke="none" clip-path="url(#clipPath2)"/>
    </g>
    <g text-rendering="geometricPrecision" stroke-miterlimit="1.45" shape-rendering="geometricPrecision" transform="matrix(1,0,0,1,120,-240)" stroke-linecap="butt">
      <path fill="none" d="M-75.1376 682.5529 L89.8624 682.5529 L89.8624 748.5529 L-75.1376 748.5529 Z" clip-path="url(#clipPath2)"/>
      <text x="-27.2167" xml:space="preserve" y="719.7072" clip-path="url(#clipPath2)" font-family="sans-serif" stroke="none">Ajout &lt;fw&gt;</text>
    </g>
    <g fill="url(#linearGradient6)" text-rendering="geometricPrecision" shape-rendering="geometricPrecision" transform="matrix(1,0,0,1,120,-240)" stroke="url(#linearGradient6)">
      <path d="M-75.1376 543.12 L89.8624 543.12 L89.8624 609.12 L-75.1376 609.12 Z" stroke="none" clip-path="url(#clipPath2)"/>
    </g>
    <g text-rendering="geometricPrecision" stroke-miterlimit="1.45" shape-rendering="geometricPrecision" transform="matrix(1,0,0,1,120,-240)" stroke-linecap="butt">
      <path fill="none" d="M-75.1376 543.12 L89.8624 543.12 L89.8624 609.12 L-75.1376 609.12 Z" clip-path="url(#clipPath2)"/>
      <text x="-33.7147" xml:space="preserve" y="580.2743" clip-path="url(#clipPath2)" font-family="sans-serif" stroke="none">Ajout &lt;note&gt;</text>
    </g>
    <g fill="url(#linearGradient7)" text-rendering="geometricPrecision" shape-rendering="geometricPrecision" transform="matrix(1,0,0,1,120,-240)" stroke="url(#linearGradient7)">
      <path d="M254.8624 682.5529 L457.8648 682.5529 L457.8648 748.5529 L254.8624 748.5529 Z" stroke="none" clip-path="url(#clipPath2)"/>
    </g>
    <g text-rendering="geometricPrecision" stroke-miterlimit="1.45" shape-rendering="geometricPrecision" transform="matrix(1,0,0,1,120,-240)" stroke-linecap="butt">
      <path fill="none" d="M254.8624 682.5529 L457.8648 682.5529 L457.8648 748.5529 L254.8624 748.5529 Z" clip-path="url(#clipPath2)"/>
      <text x="307.6722" xml:space="preserve" y="719.7072" clip-path="url(#clipPath2)" font-family="sans-serif" stroke="none">Ajout &lt;opener&gt;</text>
    </g>
    <g fill="url(#linearGradient8)" text-rendering="geometricPrecision" shape-rendering="geometricPrecision" transform="matrix(1,0,0,1,120,-240)" stroke="url(#linearGradient8)">
      <path d="M-104.2376 814.3217 L118.9624 814.3217 L118.9624 886.3217 L-104.2376 886.3217 Z" stroke="none" clip-path="url(#clipPath2)"/>
    </g>
    <g text-rendering="geometricPrecision" stroke-miterlimit="1.45" shape-rendering="geometricPrecision" transform="matrix(1,0,0,1,120,-240)" stroke-linecap="butt">
      <path fill="none" d="M-104.2376 814.3217 L118.9624 814.3217 L118.9624 886.3217 L-104.2376 886.3217 Z" clip-path="url(#clipPath2)"/>
      <text x="-82.9189" xml:space="preserve" y="854.476" clip-path="url(#clipPath2)" font-family="sans-serif" stroke="none">Ajout des lignes au &lt;opener&gt;</text>
    </g>
    <g fill="url(#linearGradient9)" text-rendering="geometricPrecision" shape-rendering="geometricPrecision" transform="matrix(1,0,0,1,120,-240)" stroke="url(#linearGradient9)">
      <path d="M533.7636 814.3217 L756.9636 814.3217 L756.9636 886.3217 L533.7636 886.3217 Z" stroke="none" clip-path="url(#clipPath2)"/>
    </g>
    <g text-rendering="geometricPrecision" stroke-miterlimit="1.45" shape-rendering="geometricPrecision" transform="matrix(1,0,0,1,120,-240)" stroke-linecap="butt">
      <path fill="none" d="M533.7636 814.3217 L756.9636 814.3217 L756.9636 886.3217 L533.7636 886.3217 Z" clip-path="url(#clipPath2)"/>
      <text x="593.8304" xml:space="preserve" y="847.4916" clip-path="url(#clipPath2)" font-family="sans-serif" stroke="none">Fin du &lt;opener&gt;</text>
      <text x="613.9954" xml:space="preserve" y="861.4603" clip-path="url(#clipPath2)" font-family="sans-serif" stroke="none">Ajout &lt;p&gt;</text>
    </g>
    <g fill="url(#linearGradient10)" text-rendering="geometricPrecision" shape-rendering="geometricPrecision" transform="matrix(1,0,0,1,120,-240)" stroke="url(#linearGradient10)">
      <path d="M533.7636 964.5904 L756.9636 964.5904 L756.9636 1036.5905 L533.7636 1036.5905 Z" stroke="none" clip-path="url(#clipPath2)"/>
    </g>
    <g text-rendering="geometricPrecision" stroke-miterlimit="1.45" shape-rendering="geometricPrecision" transform="matrix(1,0,0,1,120,-240)" stroke-linecap="butt">
      <path fill="none" d="M533.7636 964.5904 L756.9636 964.5904 L756.9636 1036.5905 L533.7636 1036.5905 Z" clip-path="url(#clipPath2)"/>
      <text x="572.4056" xml:space="preserve" y="1004.7447" clip-path="url(#clipPath2)" font-family="sans-serif" stroke="none">Ajout des lignes au &lt;p&gt;</text>
    </g>
    <g fill="url(#linearGradient11)" text-rendering="geometricPrecision" shape-rendering="geometricPrecision" transform="matrix(1,0,0,1,120,-240)" stroke="url(#linearGradient11)">
      <path d="M168.7624 964.5904 L391.9624 964.5904 L391.9624 1036.5905 L168.7624 1036.5905 Z" stroke="none" clip-path="url(#clipPath2)"/>
    </g>
    <g text-rendering="geometricPrecision" stroke-miterlimit="1.45" shape-rendering="geometricPrecision" transform="matrix(1,0,0,1,120,-240)" stroke-linecap="butt">
      <path fill="none" d="M168.7624 964.5904 L391.9624 964.5904 L391.9624 1036.5905 L168.7624 1036.5905 Z" clip-path="url(#clipPath2)"/>
      <text x="246.1524" xml:space="preserve" y="997.7603" clip-path="url(#clipPath2)" font-family="sans-serif" stroke="none">Fin du &lt;p&gt;</text>
      <text x="247.3272" xml:space="preserve" y="1011.7291" clip-path="url(#clipPath2)" font-family="sans-serif" stroke="none">Ajout &lt;lg&gt;</text>
    </g>
    <g fill="url(#linearGradient12)" text-rendering="geometricPrecision" shape-rendering="geometricPrecision" transform="matrix(1,0,0,1,120,-240)" stroke="url(#linearGradient12)">
      <path d="M936.8648 814.3217 L1160.0648 814.3217 L1160.0648 886.3217 L936.8648 886.3217 Z" stroke="none" clip-path="url(#clipPath2)"/>
    </g>
    <g text-rendering="geometricPrecision" stroke-miterlimit="1.45" shape-rendering="geometricPrecision" transform="matrix(1,0,0,1,120,-240)" stroke-linecap="butt">
      <path fill="none" d="M936.8648 814.3217 L1160.0648 814.3217 L1160.0648 886.3217 L936.8648 886.3217 Z" clip-path="url(#clipPath2)"/>
      <text x="1014.2548" xml:space="preserve" y="847.4916" clip-path="url(#clipPath2)" font-family="sans-serif" stroke="none">Fin du &lt;p&gt;</text>
      <text x="1002.9843" xml:space="preserve" y="861.4603" clip-path="url(#clipPath2)" font-family="sans-serif" stroke="none">Ajout &lt;closer&gt;</text>
    </g>
    <g text-rendering="geometricPrecision" stroke-miterlimit="1.45" shape-rendering="geometricPrecision" transform="matrix(1,0,0,1,120,-240)" stroke-linecap="butt">
      <path fill="none" d="M495.4458 457.3091 L371.1343 563.5021" clip-path="url(#clipPath2)"/>
    </g>
    <g text-rendering="geometricPrecision" stroke-miterlimit="1.45" shape-rendering="geometricPrecision" font-family="sans-serif" transform="matrix(1,0,0,1,120,-240)" stroke-linecap="butt">
      <text x="359.8996" xml:space="preserve" y="506.4541" clip-path="url(#clipPath2)" stroke="none">N° ligne ≠ 1</text>
      <path fill="none" d="M581.8595 457.317 L691.811 521.2713" clip-path="url(#clipPath2)"/>
      <path fill="white" d="M704.7772 528.8132 L693.9634 515.582 L687.9299 525.955 Z" clip-path="url(#clipPath2)" stroke="none"/>
      <path fill="none" d="M704.7772 528.8132 L693.9634 515.582 L687.9299 525.955 Z" clip-path="url(#clipPath2)"/>
      <text x="560.7974" xml:space="preserve" y="505.2681" clip-path="url(#clipPath2)" stroke="none">N° ligne = 1</text>
      <path fill="none" d="M530.4448 338.0468 L530.4448 382.5212" clip-path="url(#clipPath2)"/>
      <path fill="white" d="M530.4448 397.5212 L536.4448 381.5212 L524.4448 381.5212 Z" clip-path="url(#clipPath2)" stroke="none"/>
      <path fill="none" d="M530.4448 397.5212 L536.4448 381.5212 L524.4448 381.5212 Z" clip-path="url(#clipPath2)"/>
      <path fill="none" d="M334.1676 584.9877 L103.8309 677.0118" clip-path="url(#clipPath2)"/>
      <path fill="white" d="M89.9014 682.5769 L106.9856 682.2126 L102.5335 671.069 Z" clip-path="url(#clipPath2)" stroke="none"/>
      <path fill="none" d="M89.9014 682.5769 L106.9856 682.2126 L102.5335 671.069 Z" clip-path="url(#clipPath2)"/>
      <text x="132.563" xml:space="preserve" y="610.3748" clip-path="url(#clipPath2)" stroke="none">Ligne dans</text>
      <text x="112.023" xml:space="preserve" y="624.3436" clip-path="url(#clipPath2)" stroke="none">RunningTitleZone</text>
      <text x="107.1597" xml:space="preserve" y="638.3123" clip-path="url(#clipPath2)" stroke="none">ou NumberingZone</text>
      <path fill="none" d="M316.3597 576.12 L104.8547 576.12" clip-path="url(#clipPath2)"/>
      <path fill="white" d="M89.8547 576.12 L105.8547 582.12 L105.8547 570.12 Z" clip-path="url(#clipPath2)" stroke="none"/>
      <path fill="none" d="M89.8547 576.12 L105.8547 582.12 L105.8547 570.12 Z" clip-path="url(#clipPath2)"/>
      <text x="119.4382" xml:space="preserve" y="550.2743" clip-path="url(#clipPath2)" stroke="none">Ligne dans MarginTextZone</text>
      <path fill="none" d="M356.3636 596.1022 L356.3636 667.5698" clip-path="url(#clipPath2)"/>
      <path fill="white" d="M356.3636 682.5698 L362.3636 666.5698 L350.3636 666.5698 Z" clip-path="url(#clipPath2)" stroke="none"/>
      <path fill="none" d="M356.3636 682.5698 L362.3636 666.5698 L350.3636 666.5698 Z" clip-path="url(#clipPath2)"/>
      <text x="309.6116" xml:space="preserve" y="643.4907" clip-path="url(#clipPath2)" stroke="none">Sinon</text>
      <path fill="none" d="M270.9452 748.5377 L114.5682 808.9235" clip-path="url(#clipPath2)"/>
      <path fill="white" d="M100.5752 814.327 L117.6624 814.1605 L113.3396 802.9661 Z" clip-path="url(#clipPath2)" stroke="none"/>
      <path fill="none" d="M100.5752 814.327 L117.6624 814.1605 L113.3396 802.9661 Z" clip-path="url(#clipPath2)"/>
      <text x="84.5791" xml:space="preserve" y="770.812" clip-path="url(#clipPath2)" stroke="none">Pas de DefaultLine</text>
      <path fill="none" d="M427.0966 748.5377 L554.5817 807.9875" clip-path="url(#clipPath2)"/>
      <path fill="white" d="M568.1761 814.327 L556.2112 802.1271 L551.1395 813.0026 Z" clip-path="url(#clipPath2)" stroke="none"/>
      <path fill="none" d="M568.1761 814.327 L556.2112 802.1271 L551.1395 813.0026 Z" clip-path="url(#clipPath2)"/>
      <text x="505.6409" xml:space="preserve" y="772.2719" clip-path="url(#clipPath2)" stroke="none">DefaultLine</text>
      <path fill="none" d="M645.3636 886.3113 L645.3636 949.5713" clip-path="url(#clipPath2)"/>
      <path fill="white" d="M645.3636 964.5713 L651.3636 948.5713 L639.3636 948.5713 Z" clip-path="url(#clipPath2)" stroke="none"/>
      <path fill="none" d="M645.3636 964.5713 L651.3636 948.5713 L639.3636 948.5713 Z" clip-path="url(#clipPath2)"/>
      <text x="598.6116" xml:space="preserve" y="929.6104" clip-path="url(#clipPath2)" stroke="none">Sinon</text>
      <path fill="none" d="M557.9006 886.3297 L381.675 958.8806" clip-path="url(#clipPath2)"/>
      <path fill="white" d="M367.8045 964.591 L384.8839 964.0482 L380.3156 952.9517 Z" clip-path="url(#clipPath2)" stroke="none"/>
      <path fill="none" d="M367.8045 964.591 L384.8839 964.0482 L380.3156 952.9517 Z" clip-path="url(#clipPath2)"/>
      <text x="360.5173" xml:space="preserve" y="917.0554" clip-path="url(#clipPath2)" stroke="none">CustomLine:verse</text>
      <path fill="none" d="M756.9152 850.3217 L921.8915 850.3217" clip-path="url(#clipPath2)"/>
      <path fill="white" d="M936.8915 850.3217 L920.8915 844.3217 L920.8915 856.3217 Z" clip-path="url(#clipPath2)" stroke="none"/>
      <path fill="none" d="M936.8915 850.3217 L920.8915 844.3217 L920.8915 856.3217 Z" clip-path="url(#clipPath2)"/>
      <text x="781.0079" xml:space="preserve" y="870.5072" clip-path="url(#clipPath2)" stroke="none">CustomLine:signature</text>
      <text x="839.4406" xml:space="preserve" y="884.476" clip-path="url(#clipPath2)" stroke="none">ou</text>
      <text x="785.045" xml:space="preserve" y="898.4447" clip-path="url(#clipPath2)" stroke="none">CustomLine:dateline</text>
    </g>
  </g>
</svg>
